<?xml version="1.0" encoding="UTF-8" standalone="no"?>
<!-- Created with Inkscape (http://www.inkscape.org/) -->

<svg
   xmlns:dc="http://purl.org/dc/elements/1.1/"
   xmlns:cc="http://creativecommons.org/ns#"
   xmlns:rdf="http://www.w3.org/1999/02/22-rdf-syntax-ns#"
   xmlns:svg="http://www.w3.org/2000/svg"
   xmlns="http://www.w3.org/2000/svg"
   xmlns:sodipodi="http://sodipodi.sourceforge.net/DTD/sodipodi-0.dtd"
   xmlns:inkscape="http://www.inkscape.org/namespaces/inkscape"
   id="svg3058"
   version="1.1"
   inkscape:version="0.48.2 r9819"
   width="744.0945"
   height="1052.3623"
   xml:space="preserve"
   sodipodi:docname="osilogo.svg"><title
     id="title3071">OSI Logo</title><metadata
     id="metadata3064"><rdf:RDF><cc:Work
         rdf:about=""><dc:format>image/svg+xml</dc:format><dc:type
           rdf:resource="http://purl.org/dc/dcmitype/StillImage" /><dc:title>OSI Logo</dc:title><cc:license
           rdf:resource="" /><dc:creator><cc:Agent><dc:title>Tom Fredrik Blenning</dc:title></cc:Agent></dc:creator><dc:rights><cc:Agent><dc:title>Oslo Studentenes Idrettsklubb</dc:title></cc:Agent></dc:rights></cc:Work></rdf:RDF></metadata><defs
     id="defs3062"><clipPath
       clipPathUnits="userSpaceOnUse"
       id="clipPath3074"><path
         d="m 12.07171,711.4044 571.15929,0 0,-581.3327 -571.15929,0 0,581.3327 z"
         id="path3076" /></clipPath><clipPath
       clipPathUnits="userSpaceOnUse"
       id="clipPath3080"><path
         d="m 12,130 571,0 0,581 -571,0 0,-581 z"
         id="path3082" /></clipPath><clipPath
       clipPathUnits="userSpaceOnUse"
       id="clipPath3090"><path
         d="m 12,130 571,0 0,581 -571,0 0,-581 z"
         id="path3092" /></clipPath></defs><sodipodi:namedview
     pagecolor="#ffffff"
     bordercolor="#666666"
     borderopacity="1"
     objecttolerance="10"
     gridtolerance="10"
     guidetolerance="10"
     inkscape:pageopacity="0"
     inkscape:pageshadow="2"
     inkscape:window-width="1224"
     inkscape:window-height="673"
     id="namedview3060"
     showgrid="false"
     inkscape:zoom="1"
     inkscape:cx="372.04724"
     inkscape:cy="698.79468"
     inkscape:window-x="0"
     inkscape:window-y="0"
     inkscape:window-maximized="0"
     inkscape:current-layer="g3066" /><g
     id="g3066"
     inkscape:groupmode="layer"
     inkscape:label="osilogo"
     transform="matrix(1.25,0,0,-1.25,0,1052.3623)"><g
       id="g3068" /><g
       id="g3070"><g
         id="g3072"
         clip-path="url(#clipPath3074)"><g
           id="g3078"
           clip-path="url(#clipPath3080)"><path
             d="M 15.5437,541.4694 C 5.513777,387.4578 8.855491,266.7174 119.744,185.3893 c 45.1669,-33.1291 80.7999,-53.3886 152.685,-55.3451 71.8839,-1.9565 152.1244,9.228 216.2086,71.5588 28.4153,28.2265 66.306,83.5644 81.3557,141.9822 15.0424,58.4107 13.9261,90.837 12.4393,177.2937 C 536.0012,597.6451 420.0918,691.562 300.8455,711.4044 200.5439,698.2694 72.38151,622.8071 15.5437,541.4694"
             style="fill:#231f20;fill-opacity:1;fill-rule:nonzero;stroke:none"
             id="path3084" /></g></g></g><g
       id="g3086"><g
         id="g3088"
         clip-path="url(#clipPath3090)"><path
           d="M 24.00316,537.6114 C 14.27442,388.5239 17.51574,271.6332 125.0756,192.9009 c 43.808,-32.0713 78.3726,-51.6866 148.0956,-53.5797 69.7242,-1.8932 147.5553,8.9291 209.714,69.2736 27.5644,27.3301 64.3184,80.8931 78.9127,137.4513 14.5919,56.5462 13.5103,87.9327 12.0725,171.6357 C 528.8278,591.9967 416.4035,682.9149 300.7367,702.1226 203.4482,689.4048 79.13306,616.3484 24.00316,537.6114"
           style="fill:#ffffff;fill-opacity:1;fill-rule:nonzero;stroke:none"
           id="path3094" /><path
           d="M 38.56399,533.5442 C 29.35277,389.6461 32.42198,276.8155 134.257,200.8166 c 41.4762,-30.9527 74.2013,-49.8819 140.2157,-51.7129 66.0096,-1.8298 139.7018,8.6112 198.5523,66.863 26.0955,26.3727 60.8942,78.088 74.7153,132.6753 13.8174,54.5801 12.7919,84.8779 11.4247,165.6658 C 516.5187,586.0423 410.0822,673.7981 300.5694,692.3401 208.4583,680.0633 90.75974,609.5538 38.56399,533.5442"
           style="fill:#231f20;fill-opacity:1;fill-rule:nonzero;stroke:none"
           id="path3096" /><path
           d="m 43.60405,530.1499 c -9.03314,-140.3006 -6.02249,-250.2975 93.83215,-324.396 40.6694,-30.1758 72.7563,-48.627 137.4871,-50.415 64.7284,-1.7808 136.9852,8.4081 194.6871,65.1909 25.5911,25.7107 59.7146,76.1316 73.2607,129.3456 13.5485,53.2212 12.5446,82.7564 11.2096,161.5257 C 512.2626,581.3369 407.8927,666.8936 300.5132,684.9695 210.1925,673.0022 94.78629,604.2544 43.60405,530.1499"
           style="fill:#ffffff;fill-opacity:1;fill-rule:nonzero;stroke:none"
           id="path3098" /><path
           d="m 486.9703,255.8342 c -59.2473,40.3718 -0.1279,148.9727 -10.7745,196.2037 -31.0842,137.9043 -209.8945,98.9714 -220.1001,81.9485 -1.1103,-1.8382 29.485,-22.3008 30.7065,-32.6176 0.5689,-4.8141 -18.6257,-13.9166 -30.6193,-28.9244 -3.4911,-4.2286 -4.0265,-4.9899 0,-6.8018 -0.8509,-2.2696 5.499,-6.0105 6.803,-6.8065 -1.4175,-3.913 2.2684,-5.6663 3.4026,-8.4989 -0.5103,-2.3282 1.702,-9.0786 1.702,-9.0786 -0.7936,0.2283 -1.1343,-0.7362 -1.702,-1.1366 0.5677,-3.9716 -1.4162,-9.0176 1.702,-11.9039 -0.3395,-2.3844 4.0253,-4.9935 0,-6.8054 -0.9394,-23.233 -7.4938,-23.9692 -5.1907,-28.6185 2.3031,-4.642 2.8876,-6.1719 1.788,-8.8156 -0.9382,-2.2434 -1.788,-2.8039 -3.4027,-6.8018 -1.5047,-1.1079 -5.7583,-11.8788 -10.2056,-23.2402 -0.6549,-3.1003 -1.8166,-12.0844 5.1034,-11.9075 l 7.9396,0 c 1.586,-1.929 -1.0219,-6.5783 2.266,-6.8113 0.5677,-4.1365 -1.4162,-9.3535 1.702,-12.4681 -3.7433,-6.7527 7.0312,-7.6025 5.1022,-13.6107 l 1.7019,-1.7043 0,-17.0074 c 1.4247,-13.3106 23.729,-2.7202 32.3188,-13.619 -0.5044,-1.5848 0.796,-2.376 1.7043,-3.4015 l 0,-23.8079 c -3.6883,-2.3222 -10.8869,-31.3614 -10.2068,-32.89 1.9278,-2.4394 43.998,-16.3333 48.1955,-13.0442 4.201,3.2891 3.956,9.6773 3.405,11.9075 -4.507,18.1775 8.8898,19.5735 3.4039,28.9221 -15.5445,26.4732 6.3261,25.2529 -1.629,42.0272 0.1494,0.5247 0.3107,0.8916 0.4948,1.0673 14.0875,-11.0398 -4.1664,-20.0574 5.6675,-41.3902 3.6931,-8.016 -9.1622,-20.1124 -3.4015,-30.6264 2.5637,-4.685 0.5092,-5.5611 4.5357,-4.5285 2.0988,0.7841 0.7398,2.9927 1.1355,4.5285 -8.7798,15.0485 6.1503,17.1341 -1.6996,37.4282 -4.1269,10.6729 5.9592,25.8206 3.4003,36.2915 1.7557,-0.1745 4.2955,-2.56 5.6699,-3.4002 7.4746,-4.6086 -7.6467,-12.9331 2.2696,-41.3974 3.3119,-8.016 -8.2168,-9.5243 -1.7019,-27.2189 0.4805,-2.3474 1.8729,-3.0059 2.8362,-4.5345 2.0987,0.343 0.7374,2.9987 1.1342,4.5345 -8.2121,13.3453 5.4488,23.5306 1.6995,32.3235 -10.2916,24.1163 4.8273,26.5724 -3.4002,38.5564 l 0,1.1366 c 2.7799,1.5227 3.0596,-2.7776 5.6699,-1.7031 2.0401,-1.3613 -4.1903,-21.3339 2.2684,-34.5884 8.4176,-17.2739 -4.2464,-27.2954 2.8362,-36.8592 2.5612,1.4377 0.2868,5.7846 0.2868,5.7846 0,0 4.7138,22.645 -0.8533,34.4761 -5.5708,11.8298 -1.702,32.3211 -1.702,32.3211 0.7374,0.906 3.1182,0.3383 3.9704,2.2733 9.7359,-16.3405 -4.4377,-18.0377 5.6675,-44.7977 2.4585,-6.5161 0,-20.4231 0,-20.4231 3.8593,-0.6239 -0.735,-8.7308 3.9704,-5.1058 0.9036,1.0254 2.2135,1.8238 1.6995,3.4014 -5.1906,8.824 0.661,16.4242 -1.4115,20.9132 -10.0143,21.7331 0.7554,37.4282 -1.9911,44.8753 -0.4841,1.3255 0,1.1367 0,1.1367 9.3654,-6.8795 -2.743,-16.1863 4.5381,-32.8901 7.2846,-16.7122 2.2146,-34.4832 6.2388,-33.465 l 1.133,1.1343 c 0,0 2.8386,17.8906 -3.4039,32.3307 -7.6455,17.6862 0.8594,22.4179 -1.6971,34.5872 l 4.5333,-3.9704 c 0,0 -2.3808,-18.3172 5.1022,-32.3211 6.9081,-12.9259 -5.6675,-31.7607 3.9692,-28.9221 0.5103,1.592 -0.7912,2.4417 -1.6972,3.4027 0.5642,3.4086 5.2026,18.6399 1.6972,25.5194 -9.2746,18.2049 -3.1146,32.2578 -6.803,34.0254 0.1686,0.7375 -0.4553,1.8669 0.5678,2.2661 2.6102,0.5115 3.111,-24.6923 9.0761,-32.8913 5.9568,-8.1977 0,-23.8138 0,-23.8138 3.0011,-1.2562 0.6789,-9.5878 5.6652,-5.1058 -3.8676,12.7836 3.1277,16.3727 -1.6996,28.9196 -9.498,24.6996 -5.0472,30.3934 -5.1022,32.3284 0.3968,1.0111 1.5286,0.3884 2.2661,0.5629 0.6812,-2.7214 -0.2331,-22.0402 7.3718,-34.5872 5.7727,-9.5315 0.6705,-15.9556 1.7019,-24.3852 2.1526,0.1685 1.6434,-4.0313 3.968,-1.7043 0.2917,14.8608 3.5067,21.2849 1.7044,24.3852 -16.105,27.6659 -7.2572,34.7629 -10.2104,35.7286 1.7605,4.3564 -8.4452,28.6914 -8.5061,30.6192 0.9681,1.0183 2.6676,0.3932 3.9704,0.5605 9.5494,-31.065 27.7269,-51.9925 31.1893,-54.4343 3.6931,-4.2345 -6.5137,-6.6894 -6.8077,-12.474 -0.6645,-13.2617 61.1572,-13.4924 47.0672,-0.5677 z m -50.4675,255.739 c 0.9071,-2.0449 -1.4737,-2.6652 -2.2696,-3.9691 -2.8362,-1.1366 -21.0901,-11.0004 -22.1156,-11.9088 -0.735,0.5689 -1.2466,1.7653 -2.2637,1.7043 1.6972,2.5506 24.5526,15.1979 26.6489,14.1736 z m -26.0847,19.2782 c 1.0206,-1.3051 2.2696,-2.0377 3.9739,-1.7007 -1.1366,-2.1561 -16.2771,-23.0788 -17.5822,-24.9481 -0.735,0.5677 -1.249,1.7569 -2.2697,1.7043 0.1733,1.7533 14.3469,24.7772 15.878,24.9445 z M 359.9505,359.603 c -5.8384,1.1354 -10.6585,4.8249 -17.5774,3.4014 l 0,2.8398 c 2.8361,-0.5677 6.7479,1.4163 8.5061,-1.7043 4.7066,-0.1686 9.8064,0.4565 14.1759,-0.5677 0.7936,-3.7457 -3.6297,-2.0976 -5.1046,-3.9692 z m 0.3921,-31.7965 c -0.0586,0 -0.1196,-0.007 -0.1745,-0.007 -0.3156,0 -0.6383,0.007 -0.9598,0.007 -0.3179,0 -0.6394,-0.007 -0.9597,-0.007 -0.0586,0 -0.1147,0.007 -0.1697,0.007 0.3777,0 0.7553,0 1.1294,0 0.3777,0 0.7566,0 1.1343,0 z m -12.8673,42.0069 c -5.3317,4.1377 -14.1174,-2.1107 -17.5751,7.3634 l 0,1.7044 c 2.0378,-0.2666 11.8801,9.4944 19.2794,-1.1355 2.7477,-3.9416 12.9509,1.1558 17.5775,-3.9703 0.796,-3.7385 -13.9453,-8.0926 -19.2818,-3.962 z m -7.9384,18.1427 0,-1.1366 c -2.0425,-0.2808 -4.0552,-0.2593 -5.6675,-1.7031 -14.5513,-4.5106 -15.7082,6.0655 -17.581,7.3754 8.5586,14.1951 13.9489,-0.2581 23.2485,-4.5357 z m -13.6047,20.9814 c 0,0 -16.2496,-6.5006 -21.5514,3.4014 l 0,1.1367 c 8.1344,6.5412 20.0431,-0.5474 21.5514,-3.4075 l 0,-1.1306 z m 51.6006,133.8215 c 1.641,-2.4967 4.7592,-1.4175 7.3694,-1.7043 0,0 -1.2214,-20.1053 -5.1058,-28.3484 l -3.4002,0 c 1.0458,15.897 1.1366,30.0527 1.1366,30.0527 z m -14.176,-160.4764 0,-1.7043 c -4.3684,-1.8657 -8.1678,1.0231 -12.4776,1.1354 -1.3052,1.1366 -2.3808,2.8971 -3.9728,3.4027 5.5862,6.2615 9.3582,0.4542 12.4764,4.5429 4.709,0.4494 0.1148,-5.9532 3.974,-7.3767 z m -3.974,11.347 c -2.8337,-0.5689 -6.7455,1.4163 -8.5036,-1.7043 -3.4039,0.5665 -7.8834,-1.4175 -10.2081,1.7043 -2.0401,1.0159 -6.0643,0.6801 -5.6699,3.9692 5.2708,1.4713 12.1359,-1.0242 15.878,3.968 4.6504,1.249 7.5427,-1.8155 10.7757,-3.968 0.9059,-2.0413 -1.4761,-2.6664 -2.2721,-3.9692 z m -10.2032,152.5309 6.803,0 c 5.0137,-26.625 2.266,-29.485 2.266,-29.485 -0.3944,-1.0183 -1.531,-0.3968 -2.266,-0.5654 -2.6378,18.4476 -7.4842,28.413 -6.803,30.0504 z m -5.107,-137.7895 c 2.0426,0.9035 2.6653,-1.4737 3.9704,-2.2733 l 0,-1.6971 c -4.3648,-0.4554 -10.4901,-1.8083 -14.1736,1.1366 l -2.272,0 0,1.1294 c 4.1413,0.5665 9.3582,-1.4174 12.4752,1.7044 z m -33.1637,137.7225 10.9621,0.7542 c 2.3856,-6.1217 10.863,-31.873 10.863,-31.873 -1.5334,-1.0219 -3.8019,-0.3968 -5.6699,-0.5689 0.9645,5.6735 -17.5153,28.9603 -16.1552,31.6877 z m -33.6431,-9.8351 0,1.1366 c 3.0023,1.1952 7.6611,2.5733 13.4183,3.9716 3.2305,-4.3684 17.042,-25.7692 19.9343,-28.0926 0.4805,-0.8271 -4.0576,-1.6792 -5.6699,-3.9692 -2.9234,2.8565 -19.8327,22.4406 -27.6827,26.9536 z m -10.3096,-80.2549 c 3.1756,1.0793 45.363,-26.0883 45.363,-26.0883 -22.4849,-7.0683 -35.8111,12.2171 -45.363,26.0883 z m 3.968,-17.0133 c 3.8832,-0.5474 10.012,-9.657 20.4136,-13.6083 10.4053,-3.9489 25.29,-0.0562 27.2202,0 10.9717,-5.0855 16.7839,-10.8893 19.2818,-11.9063 l 0,-1.1367 c -4.6266,-0.827 -0.7661,-2.854 -10.7757,3.4015 -10.0108,6.2615 -23.1602,3.3788 -32.3224,0 -9.161,-3.374 -27.3074,13.3442 -23.8175,23.2498 z m 25.5182,-28.9221 c 3.3131,2.0043 10.4041,-10.7518 29.3966,-4.7974 l 0.0932,-3.135 c -15.1178,-0.2665 -19.0857,-13.3035 -29.4898,7.9324 z m 46.4972,-191.0956 c -0.3944,-1.0219 -1.531,-0.392 -2.2685,-0.5593 -1.1903,3.6811 -24.8489,8.0507 -32.3211,11.9004 l 0,4.544 c 21.6482,-8.7714 36.4039,-8.9614 34.5896,-15.8851 z m -1.1342,119.0862 c -1.5334,4.2501 2.4393,3.0011 3.9715,5.6747 2.6653,-0.2892 5.9544,0.9526 7.3719,-2.2732 -0.2857,-2.6641 0.9633,-5.9532 -2.2696,-7.3766 -3.9119,-0.8498 -6.7504,1.0147 -9.0738,3.9751 z m 70.8823,-37.4257 c -3.9142,-4.7138 -63.5081,-9.069 -63.5081,-9.069 -0.0932,6.1575 0,23.2402 0,23.2402 2.321,-0.3992 6.9727,1.3051 6.2329,-2.8338 0.343,-0.343 -2.4932,-14.972 5.6747,-12.4752 0,0 47.2309,4.538 49.3309,5.1057 0.796,-1.3051 3.1779,-1.9349 2.2696,-3.9679 z m -11.9075,54.4319 c -5.0353,-4.7604 7.7124,-43.8785 8.506,-43.6622 l 0,-1.1294 c -1.7043,0.3454 -46.2712,-5.0497 -48.199,-5.1046 -1.5896,1.9206 -2.2685,10.7721 -2.2685,10.7721 19.4754,18.1702 10.1184,33.7601 5.0998,40.8284 1.7043,2.2649 5.2194,3.8007 5.1058,6.803 3.1206,0.5677 0.1136,5.2169 3.9704,3.9691 9.8339,-3.0919 37.0529,-7.63 41.9615,11.9076 l 1.133,0 c 0.1673,-5.4978 -1.788,-11.5992 -15.309,-24.384 z m 35.7226,-58.4035 c -20.2176,45.676 -6.4313,74.2599 -6.2352,78.8183 0.1936,4.5584 5.297,25.8218 -22.118,51.0376 -1.0756,3.0095 0.7661,2.2864 3.968,2.2625 19.4754,-21.8048 22.204,-30.0659 22.6857,-46.4972 0.478,-16.4181 -14.5501,-27.1962 0,-78.2494 1.0481,-3.662 2.7799,-4.201 1.6995,-7.3718 z m 10.208,87.3172 c -4.3373,-22.9378 -8.028,-19.8113 -1.7019,-83.9157 l -1.1343,0 c -11.145,51.9029 -0.7613,75.9642 0,85.62 0.7626,9.6642 -0.9155,25.0425 -13.607,44.2323 -2.6426,3.9943 -11.4295,11.6518 -6.2401,15.8839 10.1196,-3.6668 27.023,-38.8659 22.6833,-61.8205 z m 13.6083,1.7043 c -3.2043,-8.7654 -9.1599,-44.2084 -6.8042,-85.62 0,0 4.2154,-48.4298 -1.1342,0 -6.8938,62.4001 4.2907,85.473 3.5975,105.2078 -1.133,32.3271 -25.8015,51.0376 -25.7106,58.6712 0.0274,2.5732 2.266,2.2684 2.266,2.2684 43.0108,-20.6741 30.9933,-71.7608 27.7855,-80.5274 z m -34.5872,93.0003 c -1.7605,2.2648 -5.4465,3.7445 -3.9704,7.3671 5.8635,1.7282 33.3669,2.2971 44.139,-18.683 2.7227,-1.8024 2.0127,-5.554 0.6562,-5.6951 -21.0698,21.8503 -40.8248,17.011 -40.8248,17.011"
           style="fill:#231f20;fill-opacity:1;fill-rule:nonzero;stroke:none"
           id="path3100" /><path
           d="m 149.3162,241.0367 -7.1591,0 0,28.444 c -2.5995,-2.5673 -5.6711,-4.4604 -9.2148,-5.6891 l 0,6.803 c 1.8764,0.6466 3.9094,1.8597 6.0978,3.6548 2.1884,1.7952 3.6847,3.8784 4.4879,6.2747 l 5.7882,0 0,-39.4874"
           style="fill:#231f20;fill-opacity:1;fill-rule:nonzero;stroke:none"
           id="path3102" /><path
           d="m 166.1192,262.2212 c -1.8573,0.8282 -3.2019,1.9589 -4.0397,3.3943 -0.8378,1.445 -1.2561,3.0298 -1.2561,4.7544 0,2.9318 0.9705,5.3604 2.9114,7.2738 1.9386,1.9219 4.6911,2.8804 8.2515,2.8804 3.5282,0 6.2699,-0.9585 8.2264,-2.8804 1.9577,-1.9134 2.939,-4.342 2.939,-7.2738 0,-1.8298 -0.4506,-3.4636 -1.3506,-4.8883 -0.9011,-1.421 -2.1633,-2.5087 -3.7851,-3.2604 2.0772,-0.8761 3.6536,-2.1525 4.7281,-3.8353 1.0745,-1.6757 1.6123,-3.6119 1.6123,-5.805 0,-3.6286 -1.0972,-6.5783 -3.2867,-8.8455 -2.192,-2.2637 -5.1046,-3.4015 -8.7416,-3.4015 -3.3656,0 -6.1814,0.9346 -8.4427,2.8135 -2.6569,2.2086 -3.9835,5.2456 -3.9835,9.1084 0,2.1262 0.4984,4.0756 1.494,5.8504 0.9967,1.7808 2.5696,3.1481 4.7233,4.115 z m 0.8008,-9.2698 c 0,-2.0963 0.5019,-3.7302 1.5059,-4.9086 1.0039,-1.1725 2.2637,-1.7605 3.7756,-1.7605 1.4557,0 2.6652,0.5605 3.6273,1.6972 0.9574,1.1294 1.439,2.7572 1.439,4.8882 0,1.8573 -0.4876,3.3585 -1.4665,4.4891 -0.9776,1.1199 -2.2158,1.69 -3.7074,1.69 -1.7426,0 -3.0417,-0.6394 -3.8939,-1.9242 -0.8545,-1.2813 -1.28,-2.6701 -1.28,-4.1712 z m 0.7075,16.8723 c 0,-1.5143 0.3968,-2.7011 1.1904,-3.5545 0.796,-0.8426 1.8537,-1.2704 3.178,-1.2704 1.3434,0 2.4131,0.4278 3.2162,1.2836 0.8032,0.8617 1.2047,2.0473 1.2047,3.57 0,1.4234 -0.3956,2.5672 -1.1915,3.4218 -0.7924,0.8641 -1.843,1.2908 -3.1493,1.2908 -1.3613,0 -2.4406,-0.4267 -3.2437,-1.298 -0.8032,-0.8749 -1.2048,-2.0115 -1.2048,-3.4433"
           style="fill:#231f20;fill-opacity:1;fill-rule:nonzero;stroke:none"
           id="path3104" /><path
           d="m 195.0616,262.2212 c -1.8537,0.8282 -3.2007,1.9589 -4.0385,3.3943 -0.8366,1.445 -1.2549,3.0298 -1.2549,4.7544 0,2.9318 0.9693,5.3604 2.909,7.2738 1.941,1.9219 4.6923,2.8804 8.2551,2.8804 3.5246,0 6.2663,-0.9585 8.224,-2.8804 1.9589,-1.9134 2.9378,-4.342 2.9378,-7.2738 0,-1.8298 -0.4494,-3.4636 -1.3506,-4.8883 -0.8988,-1.421 -2.1621,-2.5087 -3.7815,-3.2604 2.076,-0.8761 3.65,-2.1525 4.7245,-3.8353 1.0745,-1.6757 1.6123,-3.6119 1.6123,-5.805 0,-3.6286 -1.096,-6.5783 -3.2867,-8.8455 -2.192,-2.2637 -5.1034,-3.4015 -8.738,-3.4015 -3.368,0 -6.1838,0.9346 -8.4451,2.8135 -2.6557,2.2086 -3.9823,5.2456 -3.9823,9.1084 0,2.1262 0.496,4.0756 1.494,5.8504 0.9943,1.7808 2.5696,3.1481 4.7209,4.115 z m 0.7996,-9.2698 c 0,-2.0963 0.5031,-3.7302 1.5083,-4.9086 1.0051,-1.1725 2.2637,-1.7605 3.7744,-1.7605 1.4569,0 2.6676,0.5605 3.6261,1.6972 0.9609,1.1294 1.4438,2.7572 1.4438,4.8882 0,1.8573 -0.4924,3.3585 -1.4701,4.4891 -0.9776,1.1199 -2.2122,1.69 -3.7062,1.69 -1.7438,0 -3.0394,-0.6394 -3.8939,-1.9242 -0.8557,-1.2813 -1.2824,-2.6701 -1.2824,-4.1712 z m 0.7111,16.8723 c 0,-1.5143 0.3956,-2.7011 1.1916,-3.5545 0.7924,-0.8426 1.8513,-1.2704 3.1768,-1.2704 1.3398,0 2.413,0.4278 3.2162,1.2836 0.8032,0.8617 1.2047,2.0473 1.2047,3.57 0,1.4234 -0.3968,2.5672 -1.1904,3.4218 -0.7948,0.8641 -1.8453,1.2908 -3.1516,1.2908 -1.3602,0 -2.4406,-0.4267 -3.2438,-1.298 -0.8019,-0.8749 -1.2035,-2.0115 -1.2035,-3.4433"
           style="fill:#231f20;fill-opacity:1;fill-rule:nonzero;stroke:none"
           id="path3106" /><path
           d="m 242.0308,248.056 0,-7.0193 -25.0915,0 c 0.2677,2.6497 1.084,5.1619 2.4477,7.5308 1.3601,2.3712 4.0493,5.5133 8.0639,9.4335 3.2258,3.1625 5.2086,5.3006 5.9424,6.4372 0.9872,1.5573 1.4796,3.0932 1.4796,4.6086 0,1.69 -0.4326,2.9712 -1.2979,3.8844 -0.8641,0.9035 -2.051,1.3541 -3.5652,1.3541 -1.5119,0 -2.7107,-0.4793 -3.5927,-1.4318 -0.8821,-0.9478 -1.396,-2.5254 -1.5394,-4.7341 l -7.1579,0.7494 c 0.429,4.1532 1.7688,7.1268 4.0193,8.9435 2.2517,1.8095 5.0509,2.7118 8.4057,2.7118 3.6919,0 6.5974,-1.0505 8.7128,-3.1457 2.1155,-2.0856 3.1732,-4.6791 3.1732,-7.7925 0,-1.7737 -0.3035,-3.4505 -0.9131,-5.0556 -0.6095,-1.5992 -1.568,-3.276 -2.878,-5.0281 -0.8581,-1.1582 -2.4274,-2.8278 -4.7042,-5.0078 -2.2792,-2.1824 -3.7182,-3.6322 -4.3181,-4.3421 -0.6012,-0.7207 -1.09,-1.4163 -1.4641,-2.0963 l 14.2775,0"
           style="fill:#231f20;fill-opacity:1;fill-rule:nonzero;stroke:none"
           id="path3108" /><path
           d="m 367.32,397.5988 c -3.1122,-1.7617 -0.5629,-13.0441 0,-15.3162 3.5784,-3.001 6.4659,-7.8822 10.7757,-9.0678 7.5715,-4.8046 17.7759,-4.5165 23.8187,-1.7043 12.3868,5.1261 11.9075,18.1488 12.4776,20.9813 -0.0908,3.1422 -2.1011,6.2914 -3.9739,9.075 -0.9359,3.135 -7.4579,7.9599 -17.0098,8.5013 -11.7115,-3.3812 -14.7999,-11.1092 -15.8755,-14.1736 -1.2215,-22.9462 25.7082,-22.9462 21.5454,-6.8029 -1.8692,1.3051 -0.6561,2.5732 -5.6699,3.9691 -0.9669,1.5287 -3.6883,2.2721 -2.8361,4.5381 2.1011,1.5275 3.4062,4.8094 6.2376,4.5369 3.8819,-1.69 14.6564,-6.5017 9.6403,-19.8531 -0.6813,-1.4174 -7.4579,-14.1449 -24.9493,-7.9383 -13.1302,7.9658 -12.2781,22.1311 -7.9384,26.656 46.9752,54.7391 55.4813,42.2674 46.9752,76.2833 -4.3504,17.4018 -82.7887,65.7849 -155.8498,-3.7026 0,0 -2.7489,-2.2936 -2.835,-3.9692 -0.0872,-1.6756 1.5311,-2.2696 2.2697,-2.8362 40.1699,-21.2394 103.4867,-66.3442 103.1975,-69.1768"
           style="fill:#ffffff;fill-opacity:1;fill-rule:nonzero;stroke:none"
           id="path3110" /><path
           d="m 342.9396,288.723 c -0.1135,1.1928 0.1123,2.1537 1.133,2.841 l 0,24.9445 c -3.1744,-1.0793 -12.5589,7.3922 -16.4432,14.7413 0,0 -3.4875,10.5116 1.7043,20.4136 3.7397,4.819 11.9625,8.5635 7.936,15.8779 l -5.1046,0 c -3.625,3.3441 -6.9141,6.8591 -7.9396,11.3399 -1.3027,0.7924 -1.9278,3.1767 -3.968,2.2648 -2.8337,3.9704 -9.2996,6.4731 -8.5072,11.9147 -2.4358,0.6801 -3.8628,-2.3425 -10.2033,-5.1046 -7.459,-3.6608 -10.6729,3.331 -23.8174,1.7032 -0.6801,-0.6311 -0.7363,-2.3916 -2.2685,-1.7032 -0.68,0.3431 -0.5103,1.0721 -0.5665,1.7032 9.5531,6.7324 18.2336,-1.6338 23.2486,-1.1354 5.0173,0.4971 5.6137,4.1938 5.6699,7.3706 -5.2731,-0.9621 -7.5392,5.2731 -11.3386,7.9384 -1.4761,2.1596 1.0445,7.679 -4.3421,6.8304 -2.3545,-0.8283 -15.3102,11.3386 -15.5062,7.9121 -4.0577,-21.2443 -9.7264,-23.508 -5.67,-29.4838 2.4466,-3.5975 -1.7891,-12.1741 -13.6094,-35.7239 0.2832,-2.664 -0.9633,-5.9603 2.2684,-7.3706 2.2685,0.5689 5.6138,-1.4151 6.8042,1.7043 2.2684,0.8414 3.0058,-1.8788 4.5368,-2.8397 2.8912,-0.8558 6.7468,-0.8558 9.6391,0 0.3395,2.3282 -0.227,4.305 -2.2684,5.6663 -2.4382,1.2478 -2.6652,-2.9461 -5.1034,-1.6972 -4.4795,4.9935 3.8568,2.6653 5.1034,5.6735 l 4.5381,-4.538 c -0.1709,-2.1024 0.4518,-4.4736 -0.5689,-6.2329 l -1.1342,-2.2732 c -1.9267,-2.0975 -5.2732,-0.7434 -7.9384,-1.1354 -0.7948,-1.3123 -3.1756,-1.929 -2.2673,-3.9704 3.1756,0.5044 4.1963,-4.4819 7.3707,-3.9752 1.8728,-3.3453 5.3317,-2.9389 7.9384,-4.5309 -3.3011,-10.8498 -9.3499,-9.3415 -5.1034,-15.309 l 0,-20.4088 c 1.2358,-9.718 21.4617,-2.9151 29.4874,-10.7841 2.2122,-1.5227 2.6078,-3.7935 3.9691,-5.6723 l 1.1319,-24.9445 c 0,0 41.5945,-17.2608 37.997,-9.6367 -14.8536,31.4594 8.6041,32.6223 -2.272,44.7988 -2.2661,-0.857 -3.0011,1.8644 -4.5357,2.8313 z m -70.8799,79.9549 c -3.227,4.5501 3.0058,7.5452 5.6699,10.771 0.9645,0.1757 2.211,-0.4554 2.8361,0.5677 l 0,1.1294 c -1.7569,1.0243 -4.1401,0.3992 -6.2388,0.5677 -1.7007,-1.1354 -2.6652,-4.0803 -5.1034,-3.4014 -1.0183,0.4003 -0.3968,1.5358 -0.5665,2.266 3.7421,-0.5055 4.5357,6.2412 9.0726,3.9764 1.0207,0.9047 11.6326,-0.2594 15.8779,-7.3779 0.1004,-11.4103 -17.4771,-14.2429 -21.5478,-8.4989"
           style="fill:#ffffff;fill-opacity:1;fill-rule:nonzero;stroke:none"
           id="path3112" /><path
           d="m 286.2356,369.8134 c 2.9473,1.0159 1.0207,4.587 3.968,5.0986 l 0,1.1294 -5.6687,0 c -2.6664,-2.7226 2.7776,-3.9632 1.7007,-6.228"
           style="fill:#ffffff;fill-opacity:1;fill-rule:nonzero;stroke:none"
           id="path3114" /><path
           d="m 276.03,374.3443 0,-4.5309 c 1.8705,0.1613 4.1377,-0.4626 5.6699,0.5677 l 0,1.6971 c -1.3625,2.0402 -3.3453,2.6091 -5.6699,2.2661"
           style="fill:#ffffff;fill-opacity:1;fill-rule:nonzero;stroke:none"
           id="path3116" /><path
           d="m 270.3266,321.4314 c 1.304,-0.784 1.9279,-3.1768 3.9704,-2.2648 1.0207,0.3992 0.3956,1.537 0.5665,2.2648 1.0207,4.1389 -3.7421,1.8717 -4.5369,0"
           style="fill:#ffffff;fill-opacity:1;fill-rule:nonzero;stroke:none"
           id="path3118" /><path
           d="m 157.8725,566.684 -0.4793,-0.6561 c 0,-0.007 0,-0.0144 0,-0.0251 0.2618,0.2283 0.5199,0.453 0.7793,0.6812 l -0.3,0"
           style="fill:#231f20;fill-opacity:1;fill-rule:nonzero;stroke:none"
           id="path3120" /><path
           d="m 95.97788,501.0294 c -1.01351,4.4353 -1.52504,9.6785 -1.52504,15.7405 0,10.4697 1.87762,18.6148 5.64366,24.4605 3.7624,5.8276 8.8096,8.7486 15.1488,8.7486 8.4643,0 14.3314,-4.1687 17.605,-12.4931 0.5342,-1.3613 0.9932,-2.8481 1.3912,-4.4294 5.6651,4.9971 11.2394,9.8112 16.7312,14.4473 -0.772,1.5633 -1.5896,3.086 -2.5074,4.5154 -0.7363,1.1474 -1.5096,2.2481 -2.339,3.3071 -7.3599,9.3869 -17.6528,14.0923 -30.881,14.0923 -12.6354,0 -22.79438,-4.8954 -30.48176,-14.6672 -7.68379,-9.7694 -11.5215,-22.4299 -11.5215,-37.9815 0,-12.7394 2.32103,-23.4578 6.95115,-32.1754 0.25576,-0.484 0.54739,-0.9358 0.8175,-1.4067 5.31017,5.2468 10.55819,10.3765 15.69147,15.2995 -0.2486,0.8342 -0.51751,1.6374 -0.72428,2.5421"
           style="fill:#231f20;fill-opacity:1;fill-rule:nonzero;stroke:none"
           id="path3122" /><path
           d="m 212.7944,597.1335 c -3.4911,0.7016 -5.6173,1.1259 -6.3834,1.2514 -0.7589,0.1327 -1.4856,0.2677 -2.1872,0.4111 -6.0488,1.2024 -9.9618,2.4573 -11.7187,3.7613 -3.0202,2.2445 -4.5285,5.7511 -4.5285,10.5342 0,4.4114 1.3266,8.0041 3.9823,10.7889 2.8338,2.9521 6.6882,4.4222 11.5634,4.4222 3.2365,0 6.344,-0.7016 9.3247,-2.1143 2.8015,-1.3685 4.7652,-3.037 5.8922,-4.9911 l 4.9971,-0.1255 0.5988,0.6275 c 0.1816,6.9392 0.239,2.6581 1.1115,7.6061 l -0.3801,1.5011 c -5.2361,3.1063 -12.1095,4.6732 -20.6168,4.6732 -9.455,0 -16.8388,-2.6641 -22.1454,-7.9802 -5.0198,-5.0711 -7.5284,-11.8729 -7.5284,-20.3933 0,-8.1846 2.3091,-14.2322 6.9272,-18.1392 1.3482,-1.1402 3.3489,-2.1884 5.9974,-3.1624 2.3688,-0.8665 5.2803,-1.6554 8.6854,-2.3844 6.2113,4.5727 12.3641,8.9662 18.4774,13.2043 -0.6801,0.1793 -1.3518,0.3729 -2.0689,0.5091"
           style="fill:#231f20;fill-opacity:1;fill-rule:nonzero;stroke:none"
           id="path3124" /><path
           d="m 271.3676,640.7921 c 0,0.9777 0.001,1.9111 0.008,2.8231 0.0526,7.6335 0.3251,12.6963 0.8235,15.193 0.2127,1.1259 0.9406,1.8442 2.18,2.1525 0.3657,0.0849 1.335,0.1901 2.9007,0.2988 l 0,5.1465 c -3.8736,-0.1052 -8.9017,-0.1614 -15.0855,-0.1614 -6.2185,0 -11.267,0.0562 -15.1525,0.1614 l 0,-5.1465 c 1.5681,-0.1087 2.5386,-0.2139 2.9007,-0.2988 1.2406,-0.3083 1.9673,-1.0266 2.1824,-2.1525 0.5546,-2.7883 0.8342,-8.7941 0.8342,-18.0161 l 0,-19.3236 c 6.1146,3.7553 12.2458,7.4197 18.4081,11.0136 l 0,8.31"
           style="fill:#231f20;fill-opacity:1;fill-rule:nonzero;stroke:none"
           id="path3126" /><path
           d="m 115.2453,483.0934 c 6.3416,0 11.3757,2.9186 15.1059,8.7558 3.7325,5.8313 5.6006,14.1378 5.6006,24.9207 0,6.3488 -0.5761,11.7641 -1.7103,16.2866 -12.057,-10.631 -24.5155,-22.0796 -37.53934,-34.5692 3.04172,-10.2152 9.19334,-15.3939 18.54314,-15.3939"
           style="fill:#231f20;fill-opacity:1;fill-rule:nonzero;stroke:none"
           id="path3128" /><path
           d="m 350.8421,675.4989 c -28.2038,-14.5764 -54.1343,-28.2444 -79.4745,-43.0168 l 0,-22.4215 c 0,-9.2172 0.2737,-15.2278 0.8319,-18.0149 0.2127,-1.1259 0.9406,-1.8454 2.18,-2.1561 0.3657,-0.0813 1.335,-0.1901 2.9007,-0.2976 l 0,-5.1453 c -3.9453,0.1064 -8.9949,0.1626 -15.1501,0.1626 -6.1241,0 -11.1534,-0.0562 -15.0879,-0.1626 l 0,5.1453 c 1.5681,0.1075 2.5386,0.2163 2.9007,0.2976 1.2406,0.3107 1.9673,1.0302 2.1824,2.1561 0.5546,2.7871 0.8342,8.7977 0.8342,18.0149 l 0,11.4079 c -12.6748,-7.7853 -25.3066,-15.9795 -38.0962,-24.8441 1.3553,-0.3597 2.6664,-0.7745 3.8759,-1.2992 3.6716,-1.5788 6.4373,-3.9942 8.2922,-7.2308 1.9971,-3.5341 2.9987,-7.9395 2.9987,-13.2234 0,-6.8543 -1.7091,-12.9043 -5.1285,-18.1392 -2.9796,-4.6146 -6.8878,-8.0471 -11.7247,-10.2869 -4.4389,-2.0724 -9.7287,-3.117 -15.8731,-3.117 -7.6372,0 -15.1298,1.9971 -22.473,5.9878 l -0.6537,1.3721 c 1.0171,4.7747 1.5752,4.8811 1.5752,13.6991 l 0.545,0.6167 3.4911,0 0.4889,-0.6167 0,-1.4414 c 0,-2.3318 0.1709,1.2908 0.6071,-2.5314 1.3111,-2.6652 3.6561,-4.9516 7.0396,-6.8663 3.5246,-1.9911 7.1974,-2.9867 11.0171,-2.9867 7.1986,0 12.1789,2.8613 14.9445,8.6017 1.4163,2.9557 2.1262,6.0093 2.1262,9.1694 0,5.3185 -1.9445,9.1192 -5.8372,11.4055 -1.9254,1.1223 -5.0353,2.0617 -9.3248,2.8051 -1.5872,0.2809 -3.0548,0.5761 -4.4639,0.8773 -14.69,-10.8211 -29.7348,-22.6797 -45.4132,-35.9163 4.1079,-8.3244 6.1922,-18.5491 6.1922,-30.7339 0,-16.2425 -3.7421,-29.1528 -11.2143,-38.7321 -7.4758,-9.5901 -17.7125,-14.384 -30.7053,-14.384 -13.2903,0 -23.61188,4.8501 -30.97059,14.5238 -1.19876,1.5777 -2.26486,3.2641 -3.26402,5.0102 C 67.46336,469.8114 53.34713,455.4143 38.4624,439.7157 37.56483,365.2131 51.59859,318.2331 67.18608,285.9191 152.1631,455.278 201.2359,534.2696 392.7318,653.9546 c -8.9757,8.377 -31.1188,20.9443 -41.8897,21.5443"
           style="fill:#231f20;fill-opacity:1;fill-rule:nonzero;stroke:none"
           id="path3130" /><path
           d="m 115.2453,463.6538 c 12.9928,0 23.2295,4.7939 30.7053,14.384 7.4722,9.5793 11.2143,22.4896 11.2143,38.7321 0,12.1848 -2.0843,22.4095 -6.1922,30.7339 -5.4918,-4.6361 -11.0661,-9.4502 -16.7312,-14.4473 1.1342,-4.5225 1.7103,-9.9378 1.7103,-16.2866 0,-10.7829 -1.8681,-19.0894 -5.6006,-24.9207 -3.7302,-5.8372 -8.7643,-8.7558 -15.1059,-8.7558 -9.3498,0 -15.50142,5.1787 -18.54314,15.3939 -5.13328,-4.923 -10.3813,-10.0527 -15.69147,-15.2995 0.99916,-1.7461 2.06526,-3.4325 3.26402,-5.0102 7.35871,-9.6737 17.68029,-14.5238 30.97059,-14.5238"
           style="fill:#ffffff;fill-opacity:1;fill-rule:nonzero;stroke:none"
           id="path3132" /><path
           d="m 210.1746,579.7377 c 3.8927,-2.2863 5.8372,-6.087 5.8372,-11.4055 0,-3.1601 -0.7099,-6.2137 -2.1262,-9.1694 -2.7656,-5.7404 -7.7459,-8.6017 -14.9445,-8.6017 -3.8197,0 -7.4925,0.9956 -11.0171,2.9867 -3.3835,1.9147 -5.7285,4.2011 -7.0396,6.8663 -0.4362,3.8222 -0.6071,0.1996 -0.6071,2.5314 l 0,1.4414 -0.4889,0.6167 -3.4911,0 -0.545,-0.6167 c 0,-8.818 -0.5581,-8.9244 -1.5752,-13.6991 l 0.6537,-1.3721 c 7.3432,-3.9907 14.8358,-5.9878 22.473,-5.9878 6.1444,0 11.4342,1.0446 15.8731,3.117 4.8369,2.2398 8.7451,5.6723 11.7247,10.2869 3.4194,5.2349 5.1285,11.2849 5.1285,18.1392 0,5.2839 -1.0016,9.6893 -2.9987,13.2234 -1.8549,3.2366 -4.6206,5.652 -8.2922,7.2308 -1.2095,0.5247 -2.5206,0.9395 -3.8759,1.2992 -6.1133,-4.2381 -12.2661,-8.6316 -18.4774,-13.2043 1.4091,-0.3012 2.8767,-0.5964 4.4639,-0.8773 4.2895,-0.7434 7.3994,-1.6828 9.3248,-2.8051"
           style="fill:#ffffff;fill-opacity:1;fill-rule:nonzero;stroke:none"
           id="path3134" /><path
           d="m 252.1253,592.0457 c -0.2151,-1.1259 -0.9418,-1.8454 -2.1824,-2.1561 -0.3621,-0.0813 -1.3326,-0.1901 -2.9007,-0.2976 l 0,-5.1453 c 3.9345,0.1064 8.9638,0.1626 15.0879,0.1626 6.1552,0 11.2048,-0.0562 15.1501,-0.1626 l 0,5.1453 c -1.5657,0.1075 -2.535,0.2163 -2.9007,0.2976 -1.2394,0.3107 -1.9673,1.0302 -2.18,2.1561 -0.5582,2.7871 -0.8319,8.7977 -0.8319,18.0149 l 0,22.4215 c -6.1623,-3.5939 -12.2935,-7.2583 -18.4081,-11.0136 l 0,-11.4079 c 0,-9.2172 -0.2796,-15.2278 -0.8342,-18.0149"
           style="fill:#ffffff;fill-opacity:1;fill-rule:nonzero;stroke:none"
           id="path3136" /></g></g></g></svg>