<?xml version="1.0" standalone="no"?>
<!DOCTYPE svg PUBLIC "-//W3C//DTD SVG 20010904//EN"
 "http://www.w3.org/TR/2001/REC-SVG-20010904/DTD/svg10.dtd">
<svg version="1.0" xmlns="http://www.w3.org/2000/svg"
 width="260.000000pt" height="260.000000pt" viewBox="0 0 260.000000 260.000000"
 preserveAspectRatio="xMidYMid meet">
<metadata>
Created by potrace 1.11, written by Peter Selinger 2001-2013
</metadata>
<g transform="translate(0.000000,260.000000) scale(0.100000,-0.100000)"
fill="#000000" stroke="none">
<path d="M1140 2540 c-279 -73 -514 -189 -769 -380 -128 -95 -306 -273 -336
-335 -17 -36 -20 -69 -23 -330 -4 -298 -1 -353 39 -553 61 -306 206 -534 453
-710 178 -127 301 -186 455 -217 66 -14 126 -16 333 -12 231 4 262 6 353 30
219 56 369 140 521 292 193 192 321 432 385 724 18 82 22 140 26 388 l5 293
-58 82 c-217 302 -652 609 -1014 713 -69 20 -139 40 -156 45 -43 14 -51 13
-214 -30z m299 -40 c322 -85 653 -287 911 -556 47 -49 108 -120 135 -159 l50
-70 -1 -250 c-1 -351 -31 -507 -138 -731 -156 -326 -382 -536 -672 -627 -171
-54 -233 -62 -474 -62 -203 0 -234 2 -315 23 -170 44 -400 177 -543 315 -119
115 -226 296 -276 469 -55 190 -77 500 -58 796 11 173 7 163 130 294 234 248
647 481 997 563 55 13 109 24 120 24 11 1 71 -13 134 -29z"/>
<path d="M1155 2460 c-312 -82 -659 -282 -885 -510 -144 -146 -139 -134 -150
-366 -25 -520 48 -844 245 -1091 139 -174 375 -331 574 -383 158 -42 434 -46
612 -9 361 74 603 267 781 624 55 109 91 218 119 351 16 79 22 151 26 359 l5
260 -53 75 c-63 89 -215 249 -316 332 -214 175 -468 308 -702 368 -102 26
-124 25 -256 -10z m290 -38 l60 -18 -155 -83 c-85 -46 -158 -86 -162 -88 -15
-8 -8 95 7 111 29 28 17 36 -55 36 -54 0 -70 -3 -70 -14 0 -8 5 -18 10 -21 6
-3 10 -44 10 -89 l0 -83 -86 -53 -86 -52 -51 13 c-48 13 -52 16 -55 47 -4 44
21 72 63 72 17 0 40 -7 51 -15 26 -20 41 -19 47 5 7 28 -14 41 -75 46 -96 9
-165 -53 -154 -139 5 -40 39 -87 64 -87 7 0 12 -4 10 -9 -4 -13 -167 -141
-178 -141 -5 0 -14 9 -20 19 -19 37 -79 64 -139 64 -87 0 -132 -30 -170 -113
-25 -54 -29 -182 -7 -234 l14 -33 -89 -90 -89 -90 1 81 c0 45 4 132 8 193 10
132 12 135 151 274 227 226 545 407 875 495 102 27 170 26 270 -4z m391 -170
c221 -128 455 -337 576 -516 l40 -58 -5 -242 c-5 -265 -18 -359 -68 -519 -63
-197 -165 -364 -314 -512 -199 -198 -402 -278 -741 -292 -183 -7 -315 7 -437
48 -190 63 -404 222 -537 400 -96 128 -96 110 10 310 319 602 549 876 1022
1217 108 78 330 221 343 222 6 0 56 -26 111 -58z m-646 -222 c6 0 10 -4 10
-10 0 -6 -28 -10 -65 -10 -61 0 -84 11 -50 24 11 4 15 22 15 73 0 68 0 68 38
89 l37 22 3 -94 c1 -52 7 -94 12 -94z m-225 5 c48 -47 23 -154 -45 -187 -40
-20 -93 -23 -139 -7 -27 9 -31 16 -31 45 0 19 5 34 10 34 6 0 10 -6 10 -14 0
-43 104 -62 140 -26 38 38 16 120 -32 120 -27 0 -22 16 15 39 41 26 43 26 72
-4z m-430 -210 c14 -13 25 -28 25 -32 0 -8 -155 -153 -163 -153 -2 0 -7 17
-10 37 -8 49 9 123 35 150 30 32 81 31 113 -2z m125 -111 c1 -152 -65 -234
-186 -234 -55 0 -109 24 -131 57 -16 23 -15 26 17 56 23 23 34 28 37 18 17
-45 78 -65 125 -40 30 16 48 71 48 146 0 65 1 69 32 95 l33 27 12 -27 c7 -15
12 -59 13 -98z"/>
<path d="M1298 1855 c-93 -15 -188 -50 -187 -69 0 -6 27 -33 59 -60 86 -71 86
-76 -4 -159 l-77 -70 25 -26 c31 -33 48 -76 41 -104 -4 -13 -2 -33 3 -46 5
-14 5 -41 0 -65 -5 -23 -11 -63 -13 -91 -2 -29 -17 -81 -36 -123 -37 -80 -34
-104 13 -110 22 -3 26 -9 31 -50 3 -26 13 -60 21 -77 9 -16 16 -48 16 -70 0
-49 14 -65 56 -65 17 0 45 -5 63 -11 30 -11 31 -12 31 -72 0 -34 -9 -88 -20
-121 -31 -91 -31 -91 58 -119 122 -40 139 -42 152 -16 7 12 9 35 6 51 -3 16 1
45 10 67 14 36 14 42 -1 71 -17 32 -16 56 2 130 13 52 24 13 11 -41 -6 -31 -6
-55 2 -81 9 -30 8 -47 -4 -83 -11 -32 -13 -52 -6 -70 15 -39 33 -31 26 11 -4
19 -2 51 4 70 9 25 9 43 0 70 -9 27 -9 50 1 100 7 35 16 64 20 64 16 0 19 -21
9 -61 -8 -29 -8 -55 -1 -91 8 -36 8 -60 0 -86 -7 -26 -7 -45 0 -64 26 -70 34
-5 28 229 -1 44 1 79 5 77 4 -3 7 -31 6 -62 -1 -31 4 -74 11 -95 8 -25 10 -59
6 -96 -4 -36 -3 -61 3 -65 19 -11 25 124 8 179 -18 56 -20 113 -6 135 13 21
18 3 25 -100 3 -47 8 -105 10 -130 2 -25 4 -51 4 -58 1 -8 6 -12 13 -10 15 5
13 81 -4 148 -7 32 -7 60 0 100 11 54 11 54 7 8 -3 -26 0 -60 7 -75 6 -16 13
-57 17 -93 3 -36 11 -64 16 -63 18 4 17 74 -3 136 -14 44 -17 75 -13 107 l7
45 7 -56 c4 -31 14 -73 22 -93 11 -26 14 -52 9 -86 -4 -31 -3 -50 3 -50 20 0
25 113 8 154 -9 21 -14 45 -12 54 4 13 5 12 6 -3 1 -11 8 -33 17 -50 11 -20
14 -44 10 -72 -6 -45 0 -73 15 -73 5 0 9 30 9 68 1 49 3 62 11 50 5 -9 8 -36
7 -59 -4 -64 18 -60 26 5 5 45 2 63 -19 108 -14 30 -25 71 -25 96 0 23 -9 67
-19 97 -11 30 -15 55 -10 55 5 0 9 -6 9 -12 0 -26 63 -145 99 -188 38 -46 39
-46 20 -69 -26 -32 -24 -40 16 -57 34 -14 149 -19 179 -8 25 9 19 22 -28 68
-93 91 -104 230 -42 544 41 210 44 256 16 343 -57 188 -208 325 -410 374 -93
23 -276 27 -382 10z m126 -72 c10 -32 21 -64 23 -70 9 -23 -12 -14 -22 10 -6
12 -24 43 -39 70 l-28 47 24 0 c21 0 27 -8 42 -57z m141 3 c10 -81 2 -87 -16
-12 -13 52 -14 66 -3 66 8 0 15 -20 19 -54z m114 -8 c-1 -74 -17 -92 -18 -20
-1 35 3 62 9 62 6 0 10 -19 9 -42z m-370 -28 c23 -33 37 -60 30 -60 -15 0
-129 107 -121 115 3 3 15 5 27 5 16 0 35 -18 64 -60z m470 -39 c-43 -65 -50
-58 -8 8 17 29 34 50 37 47 3 -3 -10 -28 -29 -55z m-114 -58 c140 -44 194
-102 195 -207 0 -10 -52 -72 -120 -141 -133 -136 -139 -150 -92 -206 15 -18
20 -29 12 -25 -38 22 -50 41 -50 77 0 31 -6 42 -37 67 -54 42 -264 179 -355
232 -43 25 -78 48 -78 52 0 16 108 93 175 125 112 53 234 62 350 26z m205 2
c0 -2 -13 -11 -30 -20 -38 -19 -40 -11 -2 9 31 17 32 18 32 11z m97 -96 c31
-11 70 -44 84 -71 5 -10 -11 -3 -42 18 -28 19 -65 35 -83 36 -17 0 -37 2 -45
2 -8 1 -16 7 -19 14 -5 15 65 17 105 1z m9 -131 c60 -66 79 -176 50 -295 -10
-38 -21 -101 -26 -139 l-9 -69 5 85 c2 47 7 119 10 161 8 93 -9 151 -66 233
-22 32 -40 61 -40 67 0 14 51 -15 76 -43z m-728 -37 c37 -22 76 -46 87 -55 19
-15 19 -15 -8 -16 -43 0 -94 28 -128 71 -17 22 -28 39 -24 39 4 0 37 -18 73
-39z m668 -67 c18 -32 35 -77 39 -99 6 -39 5 -38 -12 11 -11 28 -33 70 -51 94
-34 46 -40 64 -20 58 7 -3 26 -31 44 -64z m-577 -29 c47 0 75 -5 94 -18 36
-23 34 -31 -3 -12 -33 17 -96 20 -135 5 -31 -12 -75 7 -99 42 -29 42 -17 48
30 15 40 -28 53 -32 113 -32z m551 -91 c24 -48 25 -100 5 -169 -8 -27 -13 -36
-10 -20 18 107 17 131 -5 182 -12 28 -35 63 -51 79 -16 15 -29 33 -29 38 1 17
68 -65 90 -110z m-620 11 c0 -8 12 -23 27 -35 36 -28 20 -42 -33 -28 -23 7
-49 8 -60 3 -14 -6 -2 -11 45 -17 49 -7 68 -6 84 5 20 13 25 10 71 -45 27 -32
55 -58 63 -58 18 0 16 -15 -4 -31 -25 -22 -45 -78 -38 -110 4 -15 22 -42 41
-58 31 -28 34 -35 34 -87 0 -39 5 -63 17 -76 13 -15 14 -23 5 -44 -15 -31 -15
-94 -2 -129 10 -26 9 -27 -17 -21 -16 4 -54 16 -85 28 l-58 20 0 58 c0 70 -15
87 -91 97 l-54 8 -6 65 c-4 46 -2 70 8 81 16 19 17 39 2 39 -6 0 -22 9 -35 19
-25 19 -25 20 -3 23 32 5 48 34 28 53 -15 16 -54 11 -44 -6 3 -4 12 -6 20 -2
8 3 15 0 15 -6 0 -12 -84 -11 -96 2 -14 13 46 121 74 135 38 18 48 15 21 -6
-30 -25 -20 -52 20 -52 48 0 78 43 48 69 -21 17 -74 25 -81 12 -13 -20 -23
-11 -24 22 -1 27 4 53 23 115 6 16 85 -24 85 -43z m136 30 c18 -13 16 -14 -23
-15 -23 0 -44 4 -47 9 -15 24 40 29 70 6z m-30 -48 c4 -4 -7 -7 -24 -7 -20 0
-35 7 -41 19 -10 17 -8 18 24 7 19 -7 38 -15 41 -19z m398 22 c13 -7 30 -24
36 -39 25 -61 -22 -121 -94 -119 l-41 2 40 6 c50 8 64 17 75 47 13 32 -6 73
-37 81 -38 9 -53 -14 -25 -37 29 -24 25 -54 -6 -58 -30 -5 -62 24 -62 55 0 29
42 73 69 73 11 0 31 -5 45 -11z m-261 -6 c-7 -2 -21 -2 -30 0 -10 3 -4 5 12 5
17 0 24 -2 18 -5z m-96 -9 c-3 -3 -12 -4 -19 -1 -8 3 -5 6 6 6 11 1 17 -2 13
-5z m130 -37 c-25 -6 -46 -6 -60 1 -20 10 -20 11 10 11 17 1 35 6 38 11 4 7
14 6 28 -2 21 -11 20 -12 -16 -21z m-94 -11 l29 -23 -26 -7 c-42 -10 -84 23
-59 47 11 12 27 7 56 -17z m514 -13 c-3 -10 -5 -4 -5 12 0 17 2 24 5 18 2 -7
2 -21 0 -30z m-387 -18 c0 -8 -9 -15 -19 -15 -29 0 -35 18 -9 23 13 2 24 5 26
6 1 0 2 -6 2 -14z m-60 -30 c7 -8 28 -15 46 -15 19 0 34 -4 34 -9 0 -15 -57
-23 -79 -12 -11 6 -29 11 -40 11 -25 0 -38 20 -20 31 21 13 45 11 59 -6z m437
-7 c-3 -8 -6 -5 -6 6 -1 11 2 17 5 13 3 -3 4 -12 1 -19z m-146 -35 c-5 -10
-21 -29 -35 -42 -30 -29 -31 -42 -6 -136 10 -38 16 -72 14 -75 -3 -2 -50 -9
-104 -15 l-100 -11 0 23 c0 12 11 39 25 59 29 42 31 73 10 114 -14 27 -14 31
2 49 14 17 25 19 72 15 44 -4 64 -1 91 14 19 11 36 20 38 21 1 0 -2 -7 -7 -16z
m-284 -19 c-3 -3 -12 -4 -19 -1 -8 3 -5 6 6 6 11 1 17 -2 13 -5z m61 -11 c-10
-2 -26 -2 -35 0 -10 3 -2 5 17 5 19 0 27 -2 18 -5z m-48 -103 c0 -11 -6 -20
-14 -20 -18 0 -29 16 -21 30 11 18 35 11 35 -10z m407 -92 c-3 -7 -5 -2 -5 12
0 14 2 19 5 13 2 -7 2 -19 0 -25z m-397 -40 c0 -47 9 -50 113 -39 118 13 158
14 137 2 -8 -5 -60 -14 -115 -20 -55 -7 -112 -14 -127 -16 -27 -4 -28 -3 -28
45 0 28 5 50 10 50 6 0 10 -10 10 -22z m283 -148 c3 -34 2 -47 -3 -35 -8 19
-14 103 -6 94 2 -2 6 -29 9 -59z m-398 -215 c30 -9 57 -20 60 -25 6 -10 -132
33 -142 45 -5 4 0 5 10 2 10 -4 42 -14 72 -22z"/>
<path d="M578 635 c-35 -31 -37 -49 -3 -41 25 6 25 5 25 -54 0 -47 3 -60 15
-60 12 0 15 17 15 90 0 99 -6 106 -52 65z"/>
<path d="M692 647 c-6 -7 -11 -33 -11 -57 -1 -25 -1 -54 -1 -65 -1 -23 26 -45
55 -45 42 0 72 59 44 87 -8 8 -8 17 0 32 18 33 -2 61 -43 61 -19 0 -38 -6 -44
-13z m56 -34 c-4 -22 -22 -20 -26 1 -2 10 3 16 13 16 10 0 15 -7 13 -17z m2
-72 c0 -11 -4 -22 -9 -25 -12 -8 -34 21 -26 34 11 17 35 11 35 -9z"/>
<path d="M822 648 c-5 -7 -10 -43 -10 -80 -1 -72 9 -88 56 -88 39 0 68 60 41
87 -8 8 -8 17 0 32 18 33 -2 61 -43 61 -19 0 -38 -6 -44 -12z m56 -35 c-4 -22
-22 -20 -26 1 -2 10 3 16 13 16 10 0 15 -7 13 -17z m2 -72 c0 -11 -4 -22 -9
-25 -12 -8 -34 21 -26 34 11 17 35 11 35 -9z"/>
<path d="M952 648 c-7 -7 -12 -17 -12 -24 0 -18 30 -26 36 -9 4 8 12 15 20 15
26 0 14 -32 -26 -76 -57 -62 -54 -74 20 -74 53 0 60 2 60 20 0 16 -7 20 -31
20 l-31 0 31 35 c49 56 38 105 -24 105 -17 0 -36 -5 -43 -12z"/>
</g>
</svg>
